<?xml version="1.0" standalone="no"?>
<svg viewBox="0 0 200 200" xmlns="http://www.w3.org/2000/svg">
  <path fill="#3CB371" d="M34.8,-59.1C48.5,-52.3,65.5,-49.9,65.8,-40.8C66.1,-31.7,49.8,-15.9,41.6,-4.7C33.5,6.5,33.6,13,32.7,21.1C31.8,29.2,30,39,24.4,50.6C18.8,62.2,9.4,75.7,2.2,71.8C-5,68,-9.9,46.8,-13.6,34.1C-17.3,21.4,-19.7,17.1,-30.8,12.8C-41.9,8.5,-61.6,4.3,-67.8,-3.6C-73.9,-11.4,-66.5,-22.7,-58.6,-32.5C-50.6,-42.3,-42.3,-50.5,-32.4,-59.5C-22.6,-68.6,-11.3,-78.4,-0.4,-77.7C10.5,-77,21,-65.8,34.8,-59.1Z" transform="translate(100 100)" />
</svg>
